<svg viewBox="0 0 120 120" xmlns="http://www.w3.org/2000/svg">
  <defs>
    <linearGradient id="blade" x1="0%" y1="0%" x2="100%" y2="100%">
      <stop offset="0%" stop-color="#10b981"/>
      <stop offset="50%" stop-color="#059669"/>
      <stop offset="100%" stop-color="#047857"/>
    </linearGradient>
    <linearGradient id="edge" x1="0%" y1="0%" x2="100%" y2="100%">
      <stop offset="0%" stop-color="#6ee7b7"/>
      <stop offset="50%" stop-color="#34d399"/>
      <stop offset="100%" stop-color="#10b981"/>
    </linearGradient>
    <radialGradient id="center" cx="50%" cy="50%" r="50%">
      <stop offset="0%" stop-color="#a7f3d0" stop-opacity="1"/>
      <stop offset="50%" stop-color="#34d399" stop-opacity="0.9"/>
      <stop offset="100%" stop-color="#10b981" stop-opacity="0.8"/>
    </radialGradient>
    <filter id="glow">
      <feGaussianBlur stdDeviation="2.5" result="coloredBlur"/>
      <feMerge>
        <feMergeNode in="coloredBlur"/>
        <feMergeNode in="SourceGraphic"/>
      </feMerge>
    </filter>
  </defs>
  <g filter="url(#glow)">
    <path d="M60 60 L52 28 L60 8 L68 28 Z" fill="url(#blade)" stroke="#047857" stroke-width="0.5"/>
    <path d="M60 60 L56 28 L60 12 L64 28 Z" fill="url(#edge)" opacity="0.5"/>
    <path d="M60 60 L79.8 40.2 L92 28 L79.8 40.2 L88 48 Z" fill="url(#blade)" stroke="#047857" stroke-width="0.5"/>
    <path d="M60 60 L76 44 L86 34 L78 42 Z" fill="url(#edge)" opacity="0.5"/>
    <path d="M60 60 L92 52 L112 60 L92 68 Z" fill="url(#blade)" stroke="#047857" stroke-width="0.5"/>
    <path d="M60 60 L92 56 L108 60 L92 64 Z" fill="url(#edge)" opacity="0.5"/>
    <path d="M60 60 L79.8 79.8 L92 92 L79.8 79.8 L72 88 Z" fill="url(#blade)" stroke="#047857" stroke-width="0.5"/>
    <path d="M60 60 L76 76 L86 86 L78 78 Z" fill="url(#edge)" opacity="0.5"/>
    <path d="M60 60 L68 92 L60 112 L52 92 Z" fill="url(#blade)" stroke="#047857" stroke-width="0.5"/>
    <path d="M60 60 L64 92 L60 108 L56 92 Z" fill="url(#edge)" opacity="0.5"/>
    <path d="M60 60 L40.2 79.8 L28 92 L40.2 79.8 L32 72 Z" fill="url(#blade)" stroke="#047857" stroke-width="0.5"/>
    <path d="M60 60 L44 76 L34 86 L42 78 Z" fill="url(#edge)" opacity="0.5"/>
    <path d="M60 60 L28 68 L8 60 L28 52 Z" fill="url(#blade)" stroke="#047857" stroke-width="0.5"/>
    <path d="M60 60 L28 64 L12 60 L28 56 Z" fill="url(#edge)" opacity="0.5"/>
    <path d="M60 60 L40.2 40.2 L28 28 L40.2 40.2 L48 32 Z" fill="url(#blade)" stroke="#047857" stroke-width="0.5"/>
    <path d="M60 60 L44 44 L34 34 L42 42 Z" fill="url(#edge)" opacity="0.5"/>
  </g>
  <path d="M60 40 L74.14 45.86 L80 60 L74.14 74.14 L60 80 L45.86 74.14 L40 60 L45.86 45.86 Z" fill="url(#blade)" stroke="#047857" stroke-width="1" filter="url(#glow)"/>
  <circle cx="60" cy="60" r="16" fill="url(#center)" stroke="#34d399" stroke-width="1"/>
  <circle cx="60" cy="60" r="12" fill="#064e3b" opacity="0.9"/>
  <circle cx="60" cy="60" r="8" fill="none" stroke="url(#edge)" stroke-width="1.5"/>
  <circle cx="60" cy="60" r="4" fill="#000000" opacity="0.7"/>
</svg>

